<?xml version="1.0" encoding="UTF-8"?>
<!DOCTYPE svg PUBLIC "-//W3C//DTD SVG 1.1//EN" "http://www.w3.org/Graphics/SVG/1.1/DTD/svg11.dtd">
<!-- Creator: CorelDRAW -->
<svg xmlns="http://www.w3.org/2000/svg" xml:space="preserve" width="6.82666in" height="6.82666in"
     style="shape-rendering:geometricPrecision; text-rendering:geometricPrecision; image-rendering:optimizeQuality; fill-rule:evenodd; clip-rule:evenodd"
     viewBox="0 0 6.82666 6.82666"
     xmlns:xlink="http://www.w3.org/1999/xlink">
 <defs>
  <style type="text/css">
   <![CDATA[
    .fil0 {fill:none}
    .fil3 {fill:#3A3A3A}
    .fil4 {fill:#545454}
    .fil1 {fill:#7A7A7A}
    .fil2 {fill:#939393}
   ]]>
  </style>
 </defs>
    <g id="Layer_x0020_1">
  <metadata id="CorelCorpID_0Corel-Layer"/>
        <g id="_307033840">
   <rect id="_307034056" class="fil0" width="6.82666" height="6.82666"/>
            <rect id="_307033936" class="fil0" x="0.853331" y="0.853331" width="5.12" height="5.12"/>
  </g>
        <path class="fil1"
              d="M2.8173 3.01422l0 0.35511 -0.00471654 0.0276024c-0.0546496,0.159787 -0.171358,0.297346 -0.327024,0.393705 -0.148906,0.0921693 -0.333654,0.14687 -0.533138,0.14687 -0.199476,0 -0.384228,-0.0547008 -0.533134,-0.14687 -0.155661,-0.0963583 -0.27237,-0.233917 -0.32702,-0.393705l-0.00471654 -0.0276024 0 -0.35511 0.00471654 -0.0276024c0.0546496,-0.159791 0.171358,-0.297354 0.32702,-0.393709 0.148906,-0.0921693 0.333657,-0.146874 0.533134,-0.146874 0.199484,0 0.384232,0.0547047 0.533138,0.146874 0.155673,0.0963543 0.272378,0.233913 0.327024,0.393709l0.00471654 0.0276024z"/>
        <path class="fil2"
              d="M2.8173 3.01422l0 0.149067 -0.00471654 0.0276024c-0.0546496,0.159787 -0.171358,0.297346 -0.327024,0.393705 -0.148906,0.0921693 -0.333654,0.14687 -0.533138,0.14687 -0.199476,0 -0.384228,-0.0547008 -0.533134,-0.14687 -0.155661,-0.0963583 -0.27237,-0.233917 -0.32702,-0.393705l-0.00471654 -0.0276024 0 -0.149067 0.00471654 -0.0276024c0.0546496,-0.159791 0.171358,-0.297354 0.32702,-0.393709 0.148906,-0.0921693 0.333657,-0.146874 0.533134,-0.146874 0.199484,0 0.384232,0.0547047 0.533138,0.146874 0.155673,0.0963543 0.272378,0.233913 0.327024,0.393709l0.00471654 0.0276024z"/>
        <polygon class="fil3"
                 points="1.52663,4.3831 1.52638,4.38334 0.853331,5.02798 1.3633,5.83554 3.49141,5.45826 3.49148,5.45813 5.97333,0.991122 5.34012,1.15284 5.30842,1.1754 3.08087,4.50205 "/>
        <polygon class="fil4"
                 points="1.52663,4.3831 1.52638,4.38334 0.853331,5.02798 1.26072,5.67309 3.37828,5.29768 3.37836,5.29754 5.73753,1.05135 5.34012,1.15284 5.30842,1.1754 3.08087,4.50205 "/>
 </g>
</svg>
